<?xml version="1.0" standalone="no"?>
<!DOCTYPE svg PUBLIC "-//W3C//DTD SVG 20010904//EN"
 "http://www.w3.org/TR/2001/REC-SVG-20010904/DTD/svg10.dtd">
<svg version="1.0" xmlns="http://www.w3.org/2000/svg"
 width="744.000000pt" height="1052.000000pt" viewBox="0 0 744.000000 1052.000000"
 preserveAspectRatio="xMidYMid meet">

<g transform="translate(0.000000,1052.000000) scale(0.100000,-0.100000)"
fill="#000000" stroke="none">
<path d="M1965 8511 c-48 -21 -130 -108 -167 -177 -36 -66 -74 -199 -92 -327
-30 -198 -17 -428 39 -702 28 -137 104 -415 116 -429 5 -6 9 31 9 85 0 174 35
474 106 904 13 83 27 161 30 175 l6 25 16 -30 c35 -65 75 -228 74 -296 -2 -46
4 -84 19 -125 12 -32 25 -95 28 -140 8 -91 32 -137 85 -159 25 -11 34 -23 44
-59 15 -57 61 -110 123 -141 33 -17 53 -36 66 -62 12 -26 38 -51 83 -80 36
-22 86 -57 111 -76 69 -52 102 -67 171 -74 44 -4 71 -13 91 -29 15 -13 48 -26
75 -30 26 -4 67 -14 92 -24 25 -10 83 -21 130 -25 97 -8 129 -25 161 -87 17
-34 22 -38 35 -27 54 45 195 299 211 378 l6 34 -39 -7 c-21 -3 -89 -9 -150
-13 -222 -12 -423 41 -574 152 -70 52 -191 182 -249 268 -104 155 -310 619
-400 900 -60 190 -140 251 -256 198z"/>
<path d="M1775 8498 c-72 -56 -215 -487 -279 -838 -85 -467 -102 -1116 -41
-1605 52 -413 177 -840 340 -1165 82 -163 86 -165 79 -45 -12 218 -24 322 -42
375 -46 133 -94 382 -128 660 -23 185 -30 862 -12 1130 13 199 12 238 -17 415
-23 138 -31 442 -15 558 17 128 62 262 131 396 33 63 58 120 55 128 -8 20 -40
16 -71 -9z"/>
<path d="M5373 8490 c-49 -29 -87 -89 -123 -192 -44 -128 -167 -412 -255 -593
-101 -208 -196 -348 -314 -466 -140 -138 -255 -202 -429 -235 -85 -16 -309
-18 -396 -4 -33 5 -62 7 -65 5 -10 -10 32 -121 85 -224 52 -102 130 -207 140
-186 15 34 46 76 67 89 14 10 63 19 125 24 56 5 108 14 115 20 8 7 36 15 63
18 73 9 113 23 124 45 9 15 22 19 71 19 66 0 115 17 161 55 17 14 64 44 104
66 71 39 134 97 134 123 0 7 19 22 43 32 80 36 147 112 147 168 0 19 7 27 25
32 13 3 40 23 58 43 30 33 35 47 41 112 4 41 19 103 33 138 18 48 24 78 22
120 -3 54 23 158 69 280 26 68 38 62 51 -26 68 -459 101 -777 101 -992 0 -71
4 -111 9 -105 15 15 107 330 135 460 56 268 70 511 41 709 -36 243 -117 399
-237 459 -62 31 -102 33 -145 6z"/>
<path d="M5642 8488 c-17 -17 -16 -21 33 -106 102 -175 139 -335 139 -592 -1
-177 -16 -319 -54 -505 -17 -83 -18 -111 -8 -326 27 -630 -34 -1285 -158
-1681 -59 -190 -63 -208 -78 -388 -8 -96 -13 -176 -12 -178 10 -9 111 175 184
334 239 523 342 1116 329 1906 -8 562 -68 926 -218 1336 -43 118 -63 155 -99
186 -36 29 -41 31 -58 14z"/>
<path d="M1604 8308 c-179 -191 -381 -525 -467 -773 -36 -104 -81 -284 -74
-292 3 -2 40 47 83 109 42 62 110 147 149 188 68 71 77 86 160 270 76 169 212
536 202 547 -2 2 -26 -20 -53 -49z"/>
<path d="M5820 8332 c0 -30 133 -402 201 -562 78 -184 87 -199 149 -265 36
-38 101 -121 144 -183 43 -62 81 -111 83 -108 17 16 -55 263 -127 441 -68 167
-211 398 -361 585 -78 97 -89 108 -89 92z"/>
<path d="M2006 7899 c-3 -8 -15 -81 -26 -164 -11 -82 -30 -201 -42 -263 -33
-184 -13 -305 67 -400 25 -30 29 -32 45 -17 10 9 32 45 50 80 47 93 53 186 16
269 -14 32 -26 77 -26 100 0 22 -7 63 -15 90 -8 27 -15 79 -15 116 0 41 -8 92
-21 131 -24 72 -27 77 -33 58z"/>
<path d="M5423 7824 c-12 -32 -24 -96 -27 -141 -4 -45 -13 -100 -21 -123 -8
-24 -15 -59 -15 -80 0 -21 -14 -67 -31 -105 -29 -61 -31 -73 -26 -133 7 -67
43 -157 86 -211 l18 -24 37 49 c75 102 97 206 73 344 -9 47 -25 166 -37 265
-27 227 -30 236 -57 159z"/>
<path d="M1415 7623 c-120 -285 -208 -666 -251 -1088 -51 -512 37 -1182 223
-1686 l38 -102 6 89 c4 49 10 278 14 509 7 384 5 437 -14 625 -41 405 -53 907
-31 1230 10 142 45 440 56 486 12 48 -5 22 -41 -63z"/>
<path d="M3367 7633 c-22 -86 -52 -152 -112 -242 -53 -80 -163 -202 -224 -246
-22 -16 -41 -33 -41 -36 0 -9 112 -58 149 -65 45 -9 78 25 212 219 l109 157 0
83 c0 71 -4 91 -27 137 -16 30 -33 55 -38 57 -6 2 -18 -27 -28 -64z"/>
<path d="M4016 7658 c-28 -48 -46 -124 -46 -193 0 -37 14 -63 109 -206 59 -90
122 -179 140 -198 28 -30 35 -33 69 -26 20 3 63 18 95 32 l58 26 -77 71 c-151
138 -254 297 -290 452 -10 38 -20 73 -25 77 -4 5 -19 -11 -33 -35z"/>
<path d="M6015 7633 c64 -380 51 -1159 -27 -1723 -19 -138 -22 -212 -25 -685
-3 -291 -2 -528 0 -525 9 9 85 206 121 312 41 122 87 302 122 471 64 314 78
487 71 847 -9 476 -72 830 -218 1234 -31 87 -53 120 -44 69z"/>
<path d="M3112 7555 c-22 -102 -68 -211 -134 -326 -41 -71 -41 -71 -21 -91 20
-20 20 -19 100 60 141 140 173 206 153 325 -8 54 -48 127 -68 127 -5 0 -18
-43 -30 -95z"/>
<path d="M4273 7618 c-36 -40 -46 -70 -50 -157 l-5 -86 39 -51 c43 -57 185
-214 194 -214 3 0 14 6 24 14 18 13 16 19 -42 132 -65 127 -102 233 -112 322
-7 63 -18 72 -48 40z"/>
<path d="M3468 7393 c-14 -16 -58 -80 -98 -143 -39 -63 -89 -139 -111 -168
-48 -63 -44 -66 79 -67 77 0 84 2 102 25 10 14 31 61 45 105 21 63 27 99 27
169 0 48 -4 92 -9 97 -5 5 -20 -2 -35 -18z"/>
<path d="M3922 7393 c-4 -10 -6 -56 -6 -103 1 -65 7 -103 27 -158 43 -123 42
-122 152 -122 51 0 96 4 99 8 3 5 -15 35 -39 67 -24 33 -66 100 -94 150 -58
104 -107 175 -121 175 -6 0 -14 -8 -18 -17z"/>
<path d="M1261 7377 c-6 -8 -27 -49 -47 -93 -199 -435 -293 -917 -324 -1664
-5 -135 -10 -254 -10 -265 1 -46 19 18 65 220 56 253 134 569 169 684 21 70
26 105 26 200 0 235 38 521 104 794 18 75 32 137 31 137 -2 0 -7 -6 -14 -13z"/>
<path d="M1160 7303 c-52 -77 -127 -163 -142 -163 -5 0 -7 13 -4 30 18 93 18
97 1 76 -26 -33 -75 -173 -99 -285 -43 -195 -42 -226 5 -158 13 17 47 57 75
87 45 48 56 69 87 161 20 58 56 150 81 204 26 55 45 102 44 106 -2 4 -23 -22
-48 -58z"/>
<path d="M6194 7325 c17 -58 60 -277 77 -395 15 -96 22 -208 26 -385 l4 -250
39 -145 c44 -166 76 -306 130 -575 47 -233 50 -245 61 -245 12 0 11 178 -1
475 -26 623 -107 1037 -276 1418 -42 95 -74 150 -60 102z"/>
<path d="M2166 7251 c-9 -68 -42 -161 -67 -188 -19 -20 -21 -31 -17 -97 5 -82
38 -152 85 -183 25 -16 26 -16 45 7 35 43 77 137 104 229 l26 90 -41 37 c-29
25 -45 50 -52 81 -9 32 -19 48 -40 58 -15 8 -30 15 -32 15 -3 0 -7 -22 -11
-49z"/>
<path d="M6270 7293 c0 -6 15 -44 34 -85 38 -84 96 -247 96 -272 0 -8 21 -39
48 -68 26 -29 63 -75 82 -102 l35 -49 3 35 c6 74 -61 343 -108 428 l-19 35 6
-65 6 -65 -33 30 c-18 17 -59 66 -91 110 -33 43 -59 74 -59 68z"/>
<path d="M5228 7257 c-14 -12 -32 -39 -40 -61 -7 -21 -30 -53 -50 -71 -21 -17
-38 -39 -38 -47 0 -67 78 -268 122 -315 l21 -22 30 21 c40 28 78 114 80 181 2
42 -4 66 -30 117 -21 41 -37 94 -45 143 -6 42 -14 77 -17 77 -3 0 -18 -10 -33
-23z"/>
<path d="M1727 7073 c-22 -201 -30 -554 -18 -829 16 -398 40 -586 102 -803 30
-105 94 -251 110 -251 5 0 9 169 9 378 0 207 4 403 10 435 9 55 6 70 -35 210
-56 194 -69 276 -62 402 6 88 4 106 -17 165 -13 36 -36 126 -52 200 -15 74
-30 139 -34 143 -4 4 -10 -18 -13 -50z"/>
<path d="M1917 7123 c-3 -5 -11 -51 -18 -103 -21 -145 -18 -520 4 -640 22
-116 67 -251 116 -345 l36 -70 7 300 c3 165 11 316 16 335 5 19 17 60 27 90
l17 56 -31 62 c-24 47 -31 75 -31 119 0 61 -12 95 -25 73 -10 -17 -39 13 -76
77 -31 55 -35 58 -42 46z"/>
<path d="M5471 7035 c-27 -41 -49 -65 -60 -65 -20 0 -31 -26 -31 -75 0 -17
-16 -64 -36 -105 l-35 -74 22 -80 c20 -75 22 -102 20 -351 0 -148 -4 -290 -7
-315 -6 -39 -5 -43 8 -32 16 13 85 148 116 228 51 131 82 341 82 561 0 143
-17 352 -30 366 -3 4 -26 -22 -49 -58z"/>
<path d="M2354 7053 c-18 -85 -39 -145 -70 -202 l-35 -64 16 -43 c21 -56 88
-117 118 -108 65 19 108 97 126 227 10 73 8 92 -14 101 -8 3 -26 23 -40 46
-14 22 -31 40 -39 40 -7 0 -19 7 -26 15 -18 22 -29 18 -36 -12z"/>
<path d="M5697 7064 c-3 -10 -20 -77 -37 -147 -17 -70 -41 -149 -52 -175 -18
-40 -21 -64 -19 -157 3 -128 -12 -209 -70 -391 l-41 -127 -3 -391 c-1 -215 -6
-425 -9 -466 -7 -71 -7 -74 10 -55 30 36 102 199 128 290 86 305 134 836 122
1344 -6 245 -15 326 -29 275z"/>
<path d="M5045 7044 c-10 -8 -26 -14 -36 -14 -9 0 -22 -14 -29 -30 -7 -17 -26
-41 -42 -54 l-30 -23 12 -89 c6 -49 19 -107 29 -129 21 -48 73 -95 105 -95 30
0 99 74 115 122 11 32 9 39 -14 73 -27 41 -75 181 -75 220 0 31 -11 37 -35 19z"/>
<path d="M2526 6835 c-13 -69 -27 -110 -53 -152 -30 -51 -34 -64 -30 -107 4
-41 11 -55 41 -83 19 -18 43 -33 53 -33 28 0 107 91 122 140 7 25 19 87 26
138 l11 92 -64 50 c-36 28 -70 50 -76 50 -8 0 -20 -38 -30 -95z"/>
<path d="M4819 6880 c-24 -16 -55 -38 -68 -49 l-25 -19 13 -108 c17 -146 49
-215 120 -257 l30 -18 46 44 c41 40 45 48 45 91 0 35 -6 56 -25 80 -24 31 -41
87 -65 209 -6 31 -15 57 -19 57 -4 0 -27 -13 -52 -30z"/>
<path d="M2717 6803 c-2 -5 -8 -41 -11 -81 -4 -40 -14 -92 -22 -114 -28 -80
-14 -162 38 -215 36 -37 53 -40 86 -17 52 36 92 174 92 315 l0 79 -48 0 c-28
0 -62 8 -85 20 -41 22 -44 23 -50 13z"/>
<path d="M4665 6780 c-21 -14 -47 -20 -89 -20 l-59 0 5 -127 c6 -149 27 -219
82 -272 l34 -33 41 37 c73 66 75 105 23 397 l-7 38 -30 -20z"/>
<path d="M962 6738 c-98 -143 -151 -313 -172 -554 -10 -107 -4 -271 8 -234 2
8 24 56 47 105 36 77 43 103 49 180 10 128 41 302 76 429 17 60 29 111 26 113
-2 2 -17 -15 -34 -39z"/>
<path d="M2936 6727 c-3 -12 -6 -47 -6 -78 0 -31 -7 -76 -15 -100 -26 -72 -30
-150 -11 -188 19 -36 70 -71 103 -71 32 0 93 58 116 109 22 51 33 185 20 245
-8 37 -13 41 -73 66 -36 15 -79 29 -96 33 -27 5 -33 3 -38 -16z"/>
<path d="M2126 6693 c-76 -229 -16 -605 125 -793 l34 -45 6 315 c5 229 11 331
21 372 l15 57 -34 33 c-19 18 -44 49 -55 68 -12 19 -23 37 -24 39 -2 2 -11 -2
-19 -9 -12 -10 -19 -10 -27 -2 -20 20 -26 14 -42 -35z"/>
<path d="M4355 6702 c-38 -14 -71 -27 -73 -28 -2 -1 -8 -33 -13 -70 -29 -204
68 -366 185 -312 54 24 79 112 56 198 -7 25 -16 84 -20 132 -5 49 -12 92 -15
98 -10 16 -44 11 -120 -18z"/>
<path d="M6464 6715 c43 -163 72 -335 85 -510 10 -125 12 -135 55 -225 l44
-93 8 49 c12 79 -12 356 -40 467 -25 96 -97 258 -137 307 -17 21 -19 22 -15 5z"/>
<path d="M5265 6710 c-4 -7 -17 -9 -31 -6 -19 5 -26 0 -38 -22 -8 -16 -34 -46
-57 -66 l-41 -38 12 -57 c17 -83 23 -323 12 -516 -5 -93 -7 -172 -5 -175 6 -6
38 36 86 113 47 77 102 245 118 362 22 165 -19 464 -56 405z"/>
<path d="M3160 6658 c0 -60 31 -202 51 -238 29 -52 80 -85 107 -71 43 23 79
116 68 175 -7 37 -72 121 -110 143 -11 7 -42 12 -68 13 -43 0 -48 -2 -48 -22z"/>
<path d="M4135 6658 c-11 -7 -39 -32 -62 -57 -42 -45 -43 -48 -43 -114 0 -75
15 -115 53 -140 22 -14 27 -14 55 3 55 33 82 89 102 202 9 57 15 106 13 111
-7 11 -96 8 -118 -5z"/>
<path d="M2356 6591 c-16 -26 -36 -171 -36 -263 0 -113 24 -248 70 -390 30
-92 146 -345 155 -337 2 3 -3 63 -12 134 -17 143 -23 494 -10 616 l8 75 -40
13 c-58 17 -90 49 -111 110 -9 29 -21 48 -24 42z"/>
<path d="M5058 6565 c-3 -6 -11 -27 -17 -47 -16 -49 -71 -96 -121 -104 l-40
-7 8 -56 c15 -117 7 -410 -16 -590 -13 -95 -21 -175 -18 -178 8 -8 152 295
180 377 46 139 59 225 59 380 0 98 -5 160 -15 190 -7 25 -16 40 -20 35z"/>
<path d="M2600 6456 l-35 -39 0 -136 c0 -158 12 -205 99 -374 77 -150 137
-242 147 -225 11 17 11 125 0 249 -7 78 -15 107 -42 160 -28 55 -33 77 -37
154 -4 73 -8 92 -23 103 -22 16 -59 83 -59 109 0 39 -16 38 -50 -1z"/>
<path d="M4760 6425 c-7 -27 -26 -62 -41 -79 -21 -25 -29 -48 -38 -116 -8 -60
-21 -106 -46 -157 -21 -43 -39 -99 -45 -140 -11 -81 -13 -283 -2 -283 13 0
160 251 197 335 50 118 65 185 65 302 l0 104 -38 41 -39 41 -13 -48z"/>
<path d="M3155 6348 c9 -102 30 -181 66 -248 32 -60 94 -129 105 -117 4 4 1
60 -5 126 -7 66 -10 133 -6 149 6 28 3 31 -50 56 -40 20 -62 39 -78 67 -12 21
-26 39 -30 39 -5 0 -5 -33 -2 -72z"/>
<path d="M4227 6380 c-22 -36 -72 -76 -108 -85 -26 -6 -27 -10 -33 -93 -3 -48
-9 -120 -12 -159 -4 -48 -3 -73 4 -73 17 0 82 82 113 143 16 32 36 83 43 115
18 71 28 182 18 182 -4 0 -16 -13 -25 -30z"/>
<path d="M2845 6369 c-9 -17 -31 -37 -51 -45 -30 -13 -34 -18 -34 -52 1 -105
43 -211 119 -295 35 -39 144 -117 164 -117 5 0 7 13 3 33 -4 17 -18 104 -31
192 -19 123 -29 162 -42 170 -30 18 -61 55 -82 101 -12 24 -23 44 -26 44 -2 0
-12 -14 -20 -31z"/>
<path d="M4508 6320 c-21 -34 -48 -64 -62 -70 -30 -11 -29 -10 -60 -195 -13
-82 -29 -163 -36 -179 -6 -16 -8 -31 -6 -34 10 -10 120 64 172 115 74 73 118
166 122 259 4 72 4 72 -27 88 -17 9 -38 30 -46 46 -9 17 -17 30 -18 30 -1 0
-19 -27 -39 -60z"/>
<path d="M3090 6321 c-19 -20 -46 -43 -59 -52 l-23 -15 16 -62 c28 -109 114
-252 152 -252 23 0 18 141 -7 220 -11 36 -23 95 -26 133 -3 37 -9 66 -12 66
-3 -1 -22 -18 -41 -38z"/>
<path d="M4267 6292 c-4 -31 -18 -91 -32 -132 -21 -62 -25 -90 -23 -160 l3
-85 47 47 c27 27 62 78 82 121 37 77 58 167 38 167 -6 0 -33 22 -60 50 l-49
50 -6 -58z"/>
<path d="M2097 6111 c-4 -19 -7 -57 -7 -87 0 -54 -13 -104 -28 -104 -4 0 -27
33 -50 73 l-42 72 0 -80 c0 -102 17 -391 30 -515 22 -209 81 -428 158 -593 48
-103 136 -238 140 -215 2 9 -17 135 -42 279 -76 439 -88 555 -92 826 -2 202
-6 247 -19 274 -10 18 -23 48 -29 68 l-13 35 -6 -33z"/>
<path d="M5283 6039 c-32 -73 -32 -76 -43 -314 -12 -280 -20 -341 -106 -779
-35 -181 -63 -331 -60 -333 2 -2 29 33 59 79 148 226 223 446 267 791 20 158
45 515 37 523 -2 3 -18 -19 -35 -48 -36 -66 -57 -85 -69 -66 -4 7 -10 60 -13
117 l-5 105 -32 -75z"/>
<path d="M1087 5993 c-57 -186 -94 -374 -123 -613 -18 -153 -33 -1050 -17
-1050 5 0 16 54 26 121 35 241 101 529 178 779 l41 135 -16 100 c-18 114 -32
271 -42 460 -4 72 -10 136 -14 143 -4 8 -18 -24 -33 -75z"/>
<path d="M2545 5970 c9 -144 33 -240 90 -355 68 -138 147 -234 129 -157 -4 15
-24 82 -45 150 -22 67 -42 148 -45 180 -4 38 -17 75 -39 112 -18 30 -43 80
-56 110 -37 90 -42 85 -34 -40z"/>
<path d="M4836 6003 c-10 -21 -37 -72 -61 -113 -26 -46 -47 -99 -54 -137 -6
-34 -32 -123 -57 -198 -25 -75 -43 -142 -41 -148 6 -19 104 120 147 209 22 44
49 115 60 158 18 72 39 266 28 266 -2 0 -12 -17 -22 -37z"/>
<path d="M2321 5908 c-1 -74 -5 -128 -11 -128 -11 0 -59 68 -89 128 -12 23
-24 42 -28 42 -11 0 7 -224 26 -315 22 -102 60 -226 103 -335 38 -98 149 -330
158 -330 4 0 -4 78 -17 173 -14 100 -26 251 -29 362 -6 189 -6 191 -49 325
-23 74 -47 151 -53 170 -8 29 -10 13 -11 -92z"/>
<path d="M6310 6012 c-1 -71 -55 -526 -70 -605 l-21 -102 36 -125 c69 -241
137 -575 165 -815 7 -55 13 -101 15 -103 7 -7 15 123 25 383 16 416 -5 786
-61 1066 -32 161 -88 350 -89 301z"/>
<path d="M2832 5947 c3 -35 16 -79 36 -119 38 -75 154 -236 160 -220 2 6 -8
46 -21 89 -14 43 -28 101 -32 130 -5 37 -12 54 -25 58 -10 3 -41 31 -70 61
l-53 56 5 -55z"/>
<path d="M5077 5971 c-4 -16 -29 -92 -56 -168 l-49 -138 -11 -185 c-6 -102
-22 -255 -36 -340 -14 -85 -25 -164 -25 -175 0 -19 0 -19 14 1 31 44 156 305
191 399 66 176 125 455 113 535 -3 20 -7 16 -32 -29 -31 -59 -82 -121 -99
-121 -7 0 -8 40 -3 125 6 123 4 153 -7 96z"/>
<path d="M4530 5935 c-19 -21 -52 -48 -72 -61 -32 -21 -38 -30 -38 -60 0 -20
-14 -77 -31 -126 -17 -49 -28 -92 -26 -94 7 -7 73 72 128 154 49 73 83 163 77
203 -3 18 -6 17 -38 -16z"/>
<path d="M1511 5345 c-1 -11 -6 -152 -11 -313 l-11 -293 26 -102 c34 -133 93
-309 145 -433 163 -383 381 -684 675 -932 93 -78 234 -176 243 -168 2 3 -43
72 -100 153 -386 546 -598 972 -719 1443 -27 103 -50 170 -69 200 -60 93 -109
220 -168 430 -6 21 -10 27 -11 15z"/>
<path d="M1956 5173 c-4 -68 -10 -123 -13 -123 -3 0 -12 8 -20 18 -13 15 -14
14 -9 -14 3 -17 8 -98 12 -181 7 -148 1 -223 -16 -223 -15 0 -72 52 -101 94
-36 49 -37 33 -5 -94 103 -400 273 -661 571 -875 78 -56 173 -110 181 -103 2
2 -35 67 -83 143 -275 445 -430 861 -479 1281 -24 207 -29 218 -38 77z"/>
<path d="M5870 5237 c-25 -99 -91 -255 -149 -353 -41 -68 -67 -127 -85 -189
-134 -479 -389 -962 -778 -1473 -60 -79 -108 -146 -105 -148 2 -2 50 27 108
64 316 207 591 518 788 892 71 136 131 282 196 480 l48 145 -2 315 c-2 173 -4
316 -5 317 -1 2 -8 -21 -16 -50z"/>
<path d="M5422 5233 c-1 -7 -11 -74 -22 -150 -66 -451 -240 -882 -532 -1317
-44 -65 -77 -120 -75 -122 6 -6 113 53 207 115 109 71 272 236 351 354 33 50
83 137 110 194 48 99 121 304 135 381 l7 37 -62 -63 c-34 -35 -68 -61 -74 -59
-14 4 -17 254 -4 356 8 58 7 63 -7 52 -9 -8 -17 -12 -17 -10 -1 2 -5 58 -9
124 -3 66 -7 115 -8 108z"/>
<path d="M1201 5105 c-20 -102 -58 -213 -91 -268 -29 -47 -30 -53 -30 -170 0
-246 28 -522 66 -672 21 -82 75 -208 84 -198 21 23 90 753 90 953 0 121 -1
126 -29 167 -27 40 -48 106 -68 213 l-9 45 -13 -70z"/>
<path d="M6180 5073 c0 -50 -38 -158 -75 -213 l-35 -52 0 -172 c0 -199 12
-411 40 -690 11 -109 20 -203 20 -209 0 -27 33 24 60 94 66 172 103 385 120
696 l10 192 -30 47 c-36 57 -56 115 -80 235 -20 98 -30 121 -30 72z"/>
<path d="M1350 4595 c0 -174 18 -292 69 -443 78 -234 248 -489 418 -628 31
-24 57 -43 60 -41 2 2 -55 143 -127 313 -140 330 -191 464 -264 694 -38 121
-54 155 -91 203 -25 31 -50 57 -55 57 -6 0 -10 -60 -10 -155z"/>
<path d="M5978 4640 c-54 -65 -51 -59 -119 -250 -62 -175 -161 -406 -303 -714
-58 -126 -104 -231 -101 -234 8 -9 78 50 175 147 195 195 332 456 385 732 19
99 31 325 19 355 -8 19 -13 16 -56 -36z"/>
<path d="M1328 4100 c-3 -8 -10 -76 -16 -150 -8 -108 -15 -146 -35 -192 -14
-32 -30 -58 -36 -58 -12 0 -49 45 -87 104 -16 25 -32 46 -35 46 -4 0 -9 -78
-13 -172 -14 -350 -60 -542 -173 -721 -13 -21 -22 -41 -19 -44 11 -12 111 32
165 73 195 146 313 480 298 839 -6 134 -37 309 -49 275z"/>
<path d="M1385 4080 c55 -334 57 -352 62 -653 8 -476 -31 -744 -173 -1176 -30
-90 -53 -166 -50 -168 7 -8 168 175 232 263 214 299 334 676 334 1048 l0 88
-83 88 c-103 108 -164 200 -237 355 -31 66 -64 136 -73 155 l-18 35 6 -35z"/>
<path d="M6011 3941 c-18 -74 -21 -121 -21 -283 0 -173 3 -206 24 -289 55
-218 137 -363 253 -450 56 -43 148 -88 158 -77 2 2 -20 53 -51 113 -87 175
-113 310 -115 615 0 91 -4 176 -8 189 -6 22 -10 19 -50 -43 -52 -79 -78 -98
-98 -70 -27 38 -44 122 -50 252 -3 72 -9 132 -14 132 -4 0 -17 -40 -28 -89z"/>
<path d="M5914 3899 c-97 -194 -207 -343 -310 -419 l-46 -35 5 -180 c3 -99 13
-223 22 -275 47 -264 153 -515 310 -735 67 -94 194 -239 202 -231 2 2 -11 53
-30 113 -127 392 -171 671 -170 1078 0 286 10 400 59 659 13 71 22 131 20 134
-3 2 -30 -47 -62 -109z"/>
<path d="M1864 3675 c8 -22 25 -69 39 -105 13 -36 27 -85 31 -109 l7 -44 -51
7 c-27 4 -50 3 -50 -1 0 -4 9 -69 20 -143 25 -178 38 -390 46 -809 7 -394 -1
-374 93 -212 62 104 124 290 151 447 34 199 26 532 -18 687 -4 15 -46 67 -92
115 -47 48 -109 114 -137 147 l-52 60 13 -40z"/>
<path d="M5352 3511 c-146 -150 -145 -147 -173 -317 -17 -100 -17 -414 -1
-514 22 -136 64 -283 107 -383 44 -99 101 -197 115 -197 4 0 10 98 14 218 16
527 34 764 75 970 l18 93 -51 -3 -51 -3 3 35 c1 19 21 79 43 134 21 54 38 100
37 101 -2 1 -63 -59 -136 -134z"/>
</g>
</svg>
